# xmcd
#
# Track frame offsets: 
#        150
#        9063
#        31937
#        48927
#        71538
#        98400
#        114782
#        129486
#        148596
#        168088
#        193386
#        215664
#        228076
#        248191
#
# Disc length: 3349 seconds
#
# Revision: 2
# Processed by: cddbd v1.5.2PL0 Copyright (c) Steve Scherf et al.
# Submitted via: ExactAudioCopy v1.0b4
#
DISCID=ad0d130e
DTITLE=Пилот - Джоконда
DYEAR=2002
DGENRE=Alternative
TTITLE0=Пролог
TTITLE1=Тень
TTITLE2=Будильник
TTITLE3=Ворона
TTITLE4=Художник
TTITLE5=Ершалаим
TTITLE6=Четыре Жизни
TTITLE7=Небеса
TTITLE8=Одиночество
TTITLE9=Город
TTITLE10=Потерялся Я
TTITLE11=Волк
TTITLE12=Дорога В Рай
TTITLE13=Эпилог
EXTD=
EXTT0=
EXTT1=
EXTT2=
EXTT3=
EXTT4=
EXTT5=
EXTT6=
EXTT7=
EXTT8=
EXTT9=
EXTT10=
EXTT11=
EXTT12=
EXTT13=
PLAYORDER=
